<?xml version="1.0" encoding="utf-8"?>
<svg xmlns="http://www.w3.org/2000/svg" viewBox="0 0 24 24" fill="none" stroke="currentColor" stroke-width="1.5" stroke-linecap="round" stroke-linejoin="round">
  <!-- Pétalos de la flor -->
  <path d="M12 2C13.5 3.5 15 6 12 8C9 6 10.5 3.5 12 2Z" />
  <path d="M12 2C10.5 3.5 9 6 12 8C15 6 13.5 3.5 12 2Z" />
  <path d="M22 12C20.5 13.5 18 15 16 12C18 9 20.5 10.5 22 12Z" />
  <path d="M22 12C20.5 10.5 18 9 16 12C18 15 20.5 13.5 22 12Z" />
  <path d="M12 22C10.5 20.5 9 18 12 16C15 18 13.5 20.5 12 22Z" />
  <path d="M12 22C13.5 20.5 15 18 12 16C9 18 10.5 20.5 12 22Z" />
  <path d="M2 12C3.5 10.5 6 9 8 12C6 15 3.5 13.5 2 12Z" />
  <path d="M2 12C3.5 13.5 6 15 8 12C6 9 3.5 10.5 2 12Z" />
  <!-- Centro de la flor -->
  <circle cx="12" cy="12" r="2" fill="currentColor" />
</svg>
